<?xml version="1.0" encoding="utf-8"?>
<svg id="deep-inline-me" version="1.1" xmlns="http://www.w3.org/2000/svg" xmlns:xlink="http://www.w3.org/1999/xlink" x="0px" y="0px"
	 viewBox="0 0 40 40" style="enable-background:new 0 0 40 40;" xml:space="preserve">
<path d="M14,19.5c-1.4,0-2.5,1.1-2.5,2.5s1.1,2.5,2.5,2.5s2.5-1.1,2.5-2.5S15.4,19.5,14,19.5z M26,19.5c-1.4,0-2.5,1.1-2.5,2.5
	s1.1,2.5,2.5,2.5s2.5-1.1,2.5-2.5S27.4,19.5,26,19.5z M20,0C8.9,0,0,8.9,0,20s8.9,20,20,20s20-9,20-20S31,0,20,0z M20,36
	c-8.8,0-16-7.2-16-16c0-0.6,0-1.1,0.1-1.7c4.7-2.1,8.5-5.9,10.4-10.7c3.6,5.1,9.6,8.4,16.3,8.4c1.6,0,3.1-0.2,4.5-0.5
	c0.4,1.4,0.7,3,0.7,4.5C36,28.8,28.8,36,20,36z"/>
</svg>
